<?xml version="1.0" standalone="no"?>
<!DOCTYPE svg PUBLIC "-//W3C//DTD SVG 20010904//EN"
 "http://www.w3.org/TR/2001/REC-SVG-20010904/DTD/svg10.dtd">
<svg version="1.0" xmlns="http://www.w3.org/2000/svg"
 width="757.000000pt" height="457.000000pt" viewBox="0 0 757.000000 457.000000"
 preserveAspectRatio="xMidYMid meet">
<metadata>
Created by potrace 1.16, written by Peter Selinger 2001-2019
</metadata>
<g transform="translate(0.000000,457.000000) scale(0.100000,-0.100000)"
fill="#000000" stroke="none">
<path d="M0 3260 l0 -1310 760 0 760 0 0 105 0 105 105 0 105 0 0 -108 0 -107
-297 -297 c-206 -205 -306 -298 -323 -300 -18 -2 -26 -10 -28 -28 -2 -17 -65
-87 -193 -215 l-189 -190 190 -190 190 -190 0 -267 0 -268 2705 0 2705 0 0
263 0 262 195 195 195 195 -195 195 c-137 137 -195 202 -195 218 0 16 -6 22
-23 22 -16 0 -105 83 -317 295 l-295 295 858 0 857 0 0 1315 0 1315 -430 0
-430 0 0 -205 0 -205 -110 0 -110 0 0 -155 0 -155 -105 0 -105 0 0 155 0 155
-110 0 -110 0 0 205 0 205 -2165 0 -2165 0 0 -105 0 -105 -105 0 -105 0 0 105
0 105 -760 0 -760 0 0 -1310z m6490 525 l0 -55 -105 0 -105 0 0 55 0 55 105 0
105 0 0 -55z m-5730 -525 l0 -80 -105 0 -105 0 0 -80 0 -80 105 0 105 0 0
-130 0 -130 110 0 110 0 0 290 0 290 320 0 320 0 0 -357 c0 -197 3 -375 6
-395 l7 -38 -112 0 -111 0 0 -110 0 -110 -651 0 -652 0 7 46 c3 26 6 253 6
505 l0 459 320 0 320 0 0 -80z m1520 0 l0 -80 105 0 105 0 0 -210 0 -210 110
0 110 0 0 290 0 290 320 0 320 0 0 -459 c0 -252 3 -479 6 -505 l7 -46 -763 0
-763 0 7 46 c3 26 6 253 6 505 l0 459 215 0 215 0 0 -80z m1730 0 l0 -80 105
0 105 0 0 -210 0 -210 110 0 110 0 0 290 0 290 320 0 320 0 0 -459 c0 -252 3
-479 6 -505 l7 -46 -763 0 -763 0 7 46 c3 26 6 253 6 505 l0 459 215 0 215 0
0 -80z m2590 25 l0 -55 110 0 110 0 0 55 0 55 105 0 105 0 0 -80 0 -80 110 0
110 0 0 80 0 80 105 0 105 0 0 -459 c0 -252 3 -479 6 -505 l7 -46 -327 0 -326
0 0 425 0 425 -110 0 -110 0 0 -210 0 -210 -215 0 -215 0 0 130 0 130 110 0
110 0 0 80 0 80 -220 0 -220 0 0 -425 0 -425 -326 0 -327 0 7 46 c3 26 6 217
6 425 l0 379 105 0 105 0 0 80 0 80 540 0 540 0 0 -55z m110 -1125 l0 -210
-325 0 -325 0 0 210 0 210 325 0 325 0 0 -210z m-1417 -217 l308 -6 -128 -129
-128 -128 165 -165 165 -165 -1885 0 -1885 0 165 165 165 165 -135 135 -135
135 1510 0 c831 0 1649 -3 1818 -7z m-3383 -848 l0 -65 -260 0 -260 0 0 -65 0
-65 130 0 130 0 0 -65 0 -65 -130 0 -130 0 0 -195 0 -195 260 0 260 0 0 -65 0
-65 -325 0 -325 0 0 455 0 455 325 0 325 0 0 -65z m730 0 l0 -65 -130 0 -130
0 0 -390 0 -390 -65 0 -65 0 0 390 0 390 -130 0 -130 0 0 65 0 65 325 0 325 0
0 -65z m740 0 l0 -65 -260 0 -260 0 0 -65 0 -65 130 0 130 0 0 -65 0 -65 -130
0 -130 0 0 -195 0 -195 260 0 260 0 0 -65 0 -65 -325 0 -325 0 0 455 0 455
325 0 325 0 0 -65z m600 0 l0 -65 65 0 65 0 0 -65 0 -65 -65 0 -65 0 0 -65 0
-65 65 0 65 0 0 -260 0 -260 -65 0 -65 0 0 260 0 260 -190 0 -190 0 0 -260 0
-260 -65 0 -65 0 0 455 0 455 255 0 255 0 0 -65z m350 0 l0 -65 65 0 65 0 0
-65 0 -65 65 0 65 0 0 -65 0 -65 65 0 65 0 0 195 0 195 65 0 65 0 0 -455 0
-455 -65 0 -65 0 0 195 0 195 -65 0 -65 0 0 65 0 65 -65 0 -65 0 0 65 0 65
-65 0 -65 0 0 -325 0 -325 -65 0 -65 0 0 455 0 455 65 0 65 0 0 -65z m1130 0
l0 -65 65 0 65 0 0 -390 0 -390 -65 0 -65 0 0 260 0 260 -195 0 -195 0 0 -260
0 -260 -65 0 -65 0 0 390 0 390 65 0 65 0 0 65 0 65 195 0 195 0 0 -65z m340
-325 l0 -390 260 0 260 0 0 -65 0 -65 -325 0 -325 0 0 455 0 455 65 0 65 0 0
-390z"/>
<path d="M3600 965 l0 -65 190 0 190 0 0 65 0 65 -190 0 -190 0 0 -65z"/>
<path d="M5070 965 l0 -65 195 0 195 0 0 65 0 65 -195 0 -195 0 0 -65z"/>
</g>
</svg>
